<!-- icon666.com - MILLIONS vector ICONS FREE --><svg id="Layer_1" enable-background="new 0 0 512 512" viewBox="0 0 512 512" xmlns="http://www.w3.org/2000/svg" xmlns:xlink="http://www.w3.org/1999/xlink"><linearGradient id="SVGID_1_" gradientUnits="userSpaceOnUse" x1="25.951" x2="486.05" y1="486.05" y2="25.95"><stop offset="0" stop-color="#ffe400"></stop><stop offset="1" stop-color="#eb5529"></stop></linearGradient><path d="m159.974 256 96.284-55.59v111.18zm352.026-167.5v335c0 48.799-39.7 88.5-88.499 88.5h-335.001c-48.799 0-88.5-39.701-88.5-88.5v-335c0-48.799 39.701-88.5 88.5-88.5h335.001c48.799 0 88.499 39.701 88.499 88.5zm-392.999 89.394c0-7.18-5.82-13-13-13s-13 5.82-13 13v156.213c0 7.18 5.82 13 13 13s13-5.82 13-13zm299.999 0c0-4.645-2.478-8.937-6.5-11.258-4.021-2.322-8.979-2.322-13 0l-117.242 67.69v-56.432c0-4.645-2.478-8.937-6.5-11.258-4.021-2.322-8.979-2.322-13 0l-135.284 78.106c-4.022 2.321-6.5 6.613-6.5 11.258s2.478 8.937 6.5 11.258l135.284 78.106c2.011 1.161 4.256 1.742 6.5 1.742s4.489-.581 6.5-1.742c4.022-2.321 6.5-6.613 6.5-11.258v-56.432l117.242 67.69c2.011 1.161 4.256 1.742 6.5 1.742s4.489-.581 6.5-1.742c4.022-2.321 6.5-6.613 6.5-11.258zm-26 133.696v-111.18l-96.284 55.59z" fill="url(#SVGID_1_)" style="fill: rgb(195, 145, 15);"></path></svg>